<svg xmlns="http://www.w3.org/2000/svg" viewBox="0 0 120 25" class="iconLeft">
    <g fill="#FFFFFF"
       transform="matrix(1.5236833239330814,0,0,1.5236833239330814,40.39814529774559,3.967373258828699)">
        <path d="M0.98 0.70L2.81 0.70L2.81 0.70Q3.28 0.70 3.60 1.03L3.60 1.03L3.60 1.03Q3.93 1.36 3.93 1.82L3.93 1.82L3.93 4.48L3.93 4.48Q3.93 4.94 3.60 5.27L3.60 5.27L3.60 5.27Q3.28 5.60 2.81 5.60L2.81 5.60L0.98 5.60L0.98 10.50L0 10.50L0 0.70L0.97 0.70L0.98 0.70ZM2.95 4.48L2.95 1.82L2.95 1.82Q2.95 1.68 2.81 1.68L2.81 1.68L0.98 1.68L0.98 4.62L2.81 4.62L2.81 4.62Q2.95 4.62 2.95 4.48L2.95 4.48ZM7.77 0.70L8.75 0.70L8.75 10.50L7.77 10.50L7.77 5.60L5.82 5.60L5.82 10.50L4.84 10.50L4.84 0.70L5.82 0.70L5.82 4.62L7.77 4.62L7.77 0.70ZM10.64 0.70L12.47 0.70L12.47 0.70Q12.94 0.70 13.27 1.03L13.27 1.03L13.27 1.03Q13.59 1.36 13.59 1.82L13.59 1.82L13.59 4.48L13.59 4.48Q13.59 4.94 13.27 5.27L13.27 5.27L13.27 5.27Q12.94 5.60 12.47 5.60L12.47 5.60L10.64 5.60L10.64 10.50L9.66 10.50L9.66 0.70L10.63 0.70L10.64 0.70ZM12.61 4.48L12.61 1.82L12.61 1.82Q12.61 1.68 12.47 1.68L12.47 1.68L10.64 1.68L10.64 4.62L12.47 4.62L12.47 4.62Q12.61 4.62 12.61 4.48L12.61 4.48ZM17.79 9.51L20.34 9.51L20.34 10.50L16.81 10.50L16.81 9.51L16.81 0.70L17.79 0.70L17.79 9.51ZM22.25 0.70L22.25 10.50L21.27 10.50L21.27 0.70L22.25 0.70ZM24.14 0.70L25.98 0.70L25.98 0.70Q26.43 0.70 26.76 1.03L26.76 1.03L26.76 1.03Q27.09 1.36 27.09 1.82L27.09 1.82L27.09 4.48L27.09 4.48Q27.09 4.94 26.76 5.27L26.76 5.27L26.76 5.27Q26.43 5.60 25.98 5.60L25.98 5.60L24.14 5.60L24.14 10.50L23.16 10.50L23.16 4.62L24.14 4.62L23.16 1.68L23.16 0.70L24.12 0.70L24.14 0.70ZM26.11 4.48L26.11 1.82L26.11 1.82Q26.11 1.68 25.98 1.68L25.98 1.68L24.14 1.68L24.14 4.62L25.98 4.62L25.98 4.62Q26.11 4.62 26.11 4.48L26.11 4.48ZM31.53 1.68L28.98 1.68L28.98 4.62L31.02 4.62L31.02 5.60L28.98 5.60L28.98 9.52L31.53 9.52L31.53 10.50L28 10.50L28 4.62L28.98 4.62L28 1.68L28 0.70L31.53 0.70L31.53 1.68ZM36.16 0.70L36.16 1.68L34.79 1.68L34.79 10.50L33.81 10.50L33.81 1.68L32.44 1.68L32.44 0.70L36.16 0.70ZM40.84 2.86L39.86 2.86L39.86 1.81L39.86 1.81Q39.86 1.67 39.72 1.67L39.72 1.67L38.19 1.67L38.19 1.67Q38.05 1.67 38.05 1.81L38.05 1.81L38.05 4.47L38.05 4.47Q38.05 4.56 38.14 4.59L38.14 4.59L39.72 4.59L39.72 4.59Q40.19 4.59 40.52 4.92L40.52 4.92L40.52 4.92Q40.84 5.25 40.84 5.71L40.84 5.71L40.84 9.39L40.84 9.39Q40.84 9.81 40.57 10.12L40.57 10.12L40.57 10.12Q40.31 10.43 39.90 10.50L39.90 10.50L38.01 10.50L38.01 10.50Q37.60 10.43 37.34 10.12L37.34 10.12L37.34 10.12Q37.07 9.81 37.07 9.39L37.07 9.39L37.07 8.34L38.05 8.34L38.05 9.39L38.05 9.39Q38.05 9.53 38.19 9.53L38.19 9.53L39.72 9.53L39.72 9.53Q39.86 9.53 39.86 9.39L39.86 9.39L39.86 5.71L39.86 5.71Q39.86 5.61 39.77 5.59L39.77 5.59L38.19 5.59L38.19 5.59Q37.73 5.59 37.40 5.26L37.40 5.26L37.40 5.26Q37.07 4.93 37.07 4.47L37.07 4.47L37.07 1.81L37.07 1.81Q37.07 1.39 37.34 1.08L37.34 1.08L37.34 1.08Q37.60 0.77 38.01 0.70L38.01 0.70L39.90 0.70L39.90 0.70Q40.31 0.77 40.57 1.08L40.57 1.08L40.57 1.08Q40.84 1.39 40.84 1.81L40.84 1.81L40.84 2.86ZM45.68 0.70L43.88 4.44L45.68 10.50L44.63 10.50L43.26 5.73L42.73 6.82L42.73 10.50L41.75 10.50L41.75 4.62L41.75 4.61L42.73 4.61L41.75 1.68L41.75 0.70L42.71 0.70L42.73 0.70L42.73 1.68L42.73 4.61L42.74 4.61L44.60 0.70L45.68 0.70Z"></path>
    </g>
    <g stroke="none" fill="#E87967"
       transform="matrix(0.6999420405545498,0,0,0.6999420405545498,10,1.3121269471092059)">
        <path d="M0 31.984h32v-32H0v32zm2-30h28v28H2v-28z"></path>
        <path d="M6.439 16.831h8.959l-4.48-7.741zM16.602 13.331h8.959L21.082 5.59zM6.439 26.41h8.959l-4.48-7.741zM16.602 22.91h8.959l-4.479-7.741z"></path>
    </g>
</svg>
